    <svg xmlns="http://www.w3.org/2000/svg" viewBox="0 0 460.07 81.26">
        <defs>
            <style>
                .cls-1 {
                    fill: #2b2d42
                }

                .cls-2 {
                    fill: #e63947
                }
            </style>
        </defs>
        <g id="Icon">
            <path d="M9.44 73.57 58.26 0c3.81 9 7.3 17.71 14.75 22.45 8.1 5.16 21 6.05 31.93 7.23Z" class="cls-1" />
            <path d="m0 64.22 106.11-47.77s16.6 28.66-38.91 53.65c-18.39 8.28-32 11.88-41.9 11C5.23 79.47 0 64.22 0 64.22Z" class="cls-2" />
            <circle cx="80.36" cy="10.16" r="9.73" class="cls-2" />
        </g>
        <g id="Bangla" class="">
            <path
                d="M313.3 13.96h11.47l-2.7 5.06h-2l-3.84 18-.13.09-.7.39-1.92 1.2c-.72.45-1.38.89-2 1.31a4 4 0 0 0-1 .94l-.83-.61 4.53-21.32h-3.58Zm.53-4.92v-.05c.15-.12.5-.45 1-1a27.72 27.72 0 0 1 3-2.5 22.14 22.14 0 0 1 4.65-2.58A14 14 0 0 1 328 1.76a13 13 0 0 1 4.68.93 15.8 15.8 0 0 1 4.86 3.16l-3.66 3.45a8.65 8.65 0 0 0-.74-.57 11.43 11.43 0 0 0-2.25-1.22 7.85 7.85 0 0 0-3.16-.61 7.68 7.68 0 0 0-2.81.56 8.88 8.88 0 0 0-2.94 2 17.52 17.52 0 0 0-2.92 4Z"
                class="cls-1" />
            <path
                d="M323.11 13.96h24.72l-2.7 5.06H334l-1.14 5.27a7.13 7.13 0 0 1 3.41-1 6.58 6.58 0 0 1 3.7 1c1.89 1.25 2.54 3.25 2 6a14.59 14.59 0 0 1-8.87 9.62 14.44 14.44 0 0 1-5.1.92 12.54 12.54 0 0 1-3.88-.53 24.21 24.21 0 0 1-6.54-3.09l4.14-5.36a22 22 0 0 0 5.14 2.48 9.28 9.28 0 0 0 2.44.35 7.65 7.65 0 0 0 2.71-.5 6.36 6.36 0 0 0 2.35-1.63 5.4 5.4 0 0 0 1.35-2.4l.09-.48a1 1 0 0 0-.65-.26 17.75 17.75 0 0 0-2.57 1.91l-.44.31c-.47.38-.87.68-1.22.92h-.09l-5.19-2.18 2.44-11.38h-7.67ZM352.47 13.96h11.47l-2.71 5.06h-2l-3.83 18-.13.09c-.12.06-.36.19-.7.39l-1.92 1.2c-.73.45-1.38.89-2 1.31a4.35 4.35 0 0 0-1.05.94l-.83-.61 4.54-21.32h-3.62Zm.52-4.92.05-.05c.15-.12.49-.45 1.05-1a27.72 27.72 0 0 1 3-2.5 21.87 21.87 0 0 1 4.56-2.58 14 14 0 0 1 5.55-1.11 13 13 0 0 1 4.69.93 15.8 15.8 0 0 1 4.86 3.16l-3.66 3.45a7.84 7.84 0 0 0-.75-.57A11 11 0 0 0 370 7.43a7.88 7.88 0 0 0-3.16-.61 7.77 7.77 0 0 0-2.82.56 9.08 9.08 0 0 0-2.94 2 17.83 17.83 0 0 0-2.92 4Z"
                class="cls-1" />
            <path
                d="M380.42 26.35h-.61a6.09 6.09 0 0 1-1.83-.27 4.66 4.66 0 0 1-3-4 9.81 9.81 0 0 1 .3-3.1h-15.7l2.7-5.06h30.87l-2.71 5.06h-.87a12.2 12.2 0 0 1-3 4.36 10.75 10.75 0 0 1-6.15 3.01Zm-4.15 19.48-.13-.17a5.05 5.05 0 0 1-1-1.16 10.49 10.49 0 0 1-1.46-3.29 11.5 11.5 0 0 1 0-5.19l-10.07 5.76-2.44-7.07.3-.11c.09 0 .49-.16 1.2-.43s1.54-.65 2.49-1.13a12 12 0 0 0 2.44-1.62 3.6 3.6 0 0 0 1.24-1.85l.05-.17c0-1.63-.3-2.44-.88-2.44s-1.18.65-1.87 2l-.14.17h-6.1a14.05 14.05 0 0 1 4.1-7.67 7.4 7.4 0 0 1 4.8-1.7q3.71 0 5.31 2.31 1.49 2.47.57 6.8l4.32-1.96 4.14 3.49a8.43 8.43 0 0 0-3.1 4.79 7.11 7.11 0 0 0 1.53 6.1ZM381 20.59a3.2 3.2 0 0 0 2.58-1.57h-2.4a2.71 2.71 0 0 0-.26.74c-.11.41-.09.69.08.83ZM340.35 54.14l-2.16 4h-16.25l1.71 4.55-4.46 3.27a9.21 9.21 0 0 1 4.42 2l1.74-8 4.87-.06a12.43 12.43 0 0 1 1.6.17 6.28 6.28 0 0 1 2.39.92 4.54 4.54 0 0 1 1.79 2.4 5 5 0 0 1 .1.58 3.9 3.9 0 0 1-.07 1.23 7.14 7.14 0 0 1-1.11 2.42 15.27 15.27 0 0 1-2.92 3l-3.17-2.71.24-.18.25-.2.52-.47a4.88 4.88 0 0 0 .59-.68 1.89 1.89 0 0 0 .35-.77v-.24c0-.51-.44-.91-1.25-1.19l-1.84 8.25-.07.07c-1.07.63-2 1.23-2.91 1.81a8.91 8.91 0 0 0-1.55 1.18l-.13.25-.94-.67.38-1.77a9 9 0 0 0-2.64-2.28 9.48 9.48 0 0 0-2.82-1 14.6 14.6 0 0 0-2.44-.24 6.57 6.57 0 0 0-1.57.13l-.32.07.14-.35a3 3 0 0 0-.48-1.45c-.38-.73-.8-1.46-1.29-2.21l-.07-.14.1-.13a7.32 7.32 0 0 1 1.66-1.19c.87-.51 1.77-1 2.71-1.49l2.1-1.08c-.34-.51-.75-1.13-1.21-1.84s-.92-1.33-1.29-1.88h-4.45l2.16-4Z"
                class="cls-1" />
            <path
                d="M339 54.14h9.12l-2.16 4h-1.56l-3.07 14.36-.1.07-.56.32c-.42.28-.91.59-1.49 1s-1.11.71-1.57 1a4.53 4.53 0 0 0-.87.74l-.62-.48 3.61-17h-2.88ZM359.6 60.91l-.31 1.47a5.76 5.76 0 0 1 2.64-.84 5.35 5.35 0 0 1 3.06.84q2.19 1.53 1.54 4.76a11.57 11.57 0 0 1-7 7.69 12.36 12.36 0 0 1-4 .77 10.4 10.4 0 0 1-3.13-.42 18.22 18.22 0 0 1-5.18-2.47l3.27-4.32a15.64 15.64 0 0 0 4.14 2 6.74 6.74 0 0 0 1.91.28 5.42 5.42 0 0 0 4.11-1.74 4.24 4.24 0 0 0 1-1.91v-.35a.86.86 0 0 0-.49-.21 14.75 14.75 0 0 0-2.3 1.67c-.49.37-.87.65-1.15.84l-4.14-1.78 1.95-9.07h-6.09l2.16-4h10.12c.28 0 .31.58.1 1.74l.8-.24a5.41 5.41 0 0 0 2.82-2 1.94 1.94 0 0 0 .35-.73 1.2 1.2 0 0 0-.31-1.12q-.66-.69-1.05-.69l-.42-.17 3.79-2.62c.1 0 .35.15.77.35a3.66 3.66 0 0 1 1.95 2.61 4.34 4.34 0 0 1 0 1.64 9.33 9.33 0 0 1-1.84 3.58q-3.67 4.44-8.41 4.44ZM377.67 77.42a7.83 7.83 0 0 1-4.67-3.87 10.83 10.83 0 0 1-.94-7.86 17.72 17.72 0 0 1 1.43-4.21 26.68 26.68 0 0 1 2-3.3h-3.79l2.16-4H384l-2.16 4h-1.11a17 17 0 0 0-4.1 7.58 7.62 7.62 0 0 0 .55 4.87 4.68 4.68 0 0 0 2.72 2.33Z"
                class="cls-1" />
            <path
                d="M391.75 75.99a10.66 10.66 0 0 1-3.2-.42 20.09 20.09 0 0 1-5.28-2.5l3.34-4.39a15.55 15.55 0 0 0 4.21 2 7.11 7.11 0 0 0 1.94.28 5.43 5.43 0 0 0 4.18-1.77 5 5 0 0 0 1.15-2.3c0-.09-.24-.16-.56-.21-.35.21-1 .66-1.84 1.33-.63.51-1.17.91-1.6 1.21l-4.21-1.81.45-2.26a5.9 5.9 0 0 0-3.66-1.24h-.59a1.34 1.34 0 0 0-.52.84 2.33 2.33 0 0 0 .18 1.28l1.26 1.3-2.78 3.51a6.18 6.18 0 0 1-1.6-1.15 4.83 4.83 0 0 1-1.62-4.94 9.66 9.66 0 0 1 .8-2.23 7.08 7.08 0 0 1 4.63-3.72 6.58 6.58 0 0 1 1.32-.14 6 6 0 0 1 3.3.94l.35.25.38-1.67h-11.3l2.16-4h25.15l-2.16 4h-9l-.94 4.38a5.61 5.61 0 0 1 2.78-.87 5.5 5.5 0 0 1 3 .83 4.07 4.07 0 0 1 1.6 4.63 10.72 10.72 0 0 1-2.57 4.92 12.23 12.23 0 0 1-4.63 3.19 13.18 13.18 0 0 1-4.12.73ZM425.19 75.71l-.91-.66L427 62.18l-2.75-2.27a6.25 6.25 0 0 0-2.25 1.5 4.64 4.64 0 0 0-1.15 2.23 5.81 5.81 0 0 0-.14 1 1.26 1.26 0 0 0 .24.42 1.19 1.19 0 0 0 1.05.49 5.16 5.16 0 0 0 2.64-1.15l.8 4.28a10.3 10.3 0 0 1-1 .62 8.73 8.73 0 0 1-4.28 1.36 3.29 3.29 0 0 1-2.22-.84 7.1 7.1 0 0 1-1.54-1.94 6.54 6.54 0 0 1-4.14 2 6 6 0 0 1-3.68-1.33c-.28-.21-.54-.41-.77-.62l2.65-4.28.17.14a2.84 2.84 0 0 0 1.91 1 2 2 0 0 0 .49-.07 2.27 2.27 0 0 0 .82-.42 1.88 1.88 0 0 0 .36-.35l.07-.07a9.93 9.93 0 0 0 .28-1 3.29 3.29 0 0 0-.21-2.26 4.63 4.63 0 0 0-3.72-2.13 3.51 3.51 0 0 1-1.22-.34h-1.51l2.15-4h3.52a7.28 7.28 0 0 1 2.43 1 7.42 7.42 0 0 1 3 3.37 11.22 11.22 0 0 1 5.63-3l1.08-.21a.21.21 0 0 1 .14.07v-.07l2.3 1.74.63-2.92h7.93l-2.16 4H433l-3.07 14.26h-.1c-1.07.62-2 1.23-2.89 1.82a10.42 10.42 0 0 0-1.53 1.17ZM457.91 58.18h-1.56l-3.07 14.3c-.57.34-1.56 1-2.95 1.91a9.64 9.64 0 0 0-1.6 1.15l-.11.24-.94-.66 1.46-6.93a7.1 7.1 0 0 0-1.59-1.46 4 4 0 0 0-2.13-.59 4.7 4.7 0 0 0-3 1.29 2 2 0 0 0-.35.76c-.23 1.14.47 2 2.09 2.62l.24.06-3.22 4.04H441l-.87-.42a7.85 7.85 0 0 1-1.64-1.15 6.54 6.54 0 0 1-1.49-1.91 3.65 3.65 0 0 1-.24-2.64q1.49-7.14 8.1-7.73h.9a7.45 7.45 0 0 1 4.56 1.56l.94-4.41h-14.19l2.16-4h20.84Z"
                class="cls-1" />
        </g>
        <g id="English" class="">
            <path
                d="m130.82 39.4 3.48-28.49h10.07a14.14 14.14 0 0 1 6.37 1.28 9.86 9.86 0 0 1 3.93 3.4 12.94 12.94 0 0 1 1.87 4.77 17.76 17.76 0 0 1 .18 5.3 15.59 15.59 0 0 1-1.72 5.71 15.25 15.25 0 0 1-3.36 4.34 14.65 14.65 0 0 1-4.53 2.74 14.31 14.31 0 0 1-5.17 1Zm6.27-5.42h4.57a10.4 10.4 0 0 0 3.5-.56 8.41 8.41 0 0 0 2.84-1.64 8.6 8.6 0 0 0 2-2.73 11.92 11.92 0 0 0 1-3.78 9.3 9.3 0 0 0-.35-4.55 6.45 6.45 0 0 0-1.93-2.73 7.57 7.57 0 0 0-2.58-1.33 8.7 8.7 0 0 0-2.3-.37h-4.57ZM164 10.91h5.81l-3.48 28.49h-5.81ZM199.18 40.56H199l-19.2-19.51 1.54.93-2 17.42h-5.69l3.64-29.61h.23l18.74 19.43-1.16-.54 2-17.77h5.65ZM230.46 37.23a8.08 8.08 0 0 1-2.34 1.24 19.39 19.39 0 0 1-3.52 1 19.09 19.09 0 0 1-3.66.37 14.59 14.59 0 0 1-2-.2 20.59 20.59 0 0 1-2.89-.67 16.14 16.14 0 0 1-3.21-1.4 12.53 12.53 0 0 1-3-2.36 11.09 11.09 0 0 1-2.21-3.54 13.48 13.48 0 0 1-.83-5 18.42 18.42 0 0 1 .52-4.16 17.72 17.72 0 0 1 1.68-4.26 14.74 14.74 0 0 1 2.94-3.8 13.55 13.55 0 0 1 4.36-2.69 15.83 15.83 0 0 1 6-1 24.14 24.14 0 0 1 5 .66 15.16 15.16 0 0 1 4.76 2l-2.48 5.11a11.72 11.72 0 0 0-3.58-1.56 13.08 13.08 0 0 0-3.83-.52 10.62 10.62 0 0 0-3.87.69 8.11 8.11 0 0 0-2.7 1.77 8.94 8.94 0 0 0-1.72 2.39 10.41 10.41 0 0 0-.88 2.61 12.56 12.56 0 0 0-.27 2.57 7.23 7.23 0 0 0 .73 3.43 6.64 6.64 0 0 0 1.92 2.24 9.33 9.33 0 0 0 2.46 1.32 11.87 11.87 0 0 0 2.42.6 14.39 14.39 0 0 0 1.76.15 8.18 8.18 0 0 0 1.74-.09 4.9 4.9 0 0 0 1.43-.45l.43-3.72h-4.92l.66-5.38H232ZM264.07 10.91l-3.49 28.49h-5.8l1.43-11.57h-12.35l-1.43 11.57h-5.81l3.48-28.49h5.81l-1.39 11.42h12.35l1.39-11.42ZM276.61 30.54l-8.09-19.63h6.93L281 25.7l-1.66.11 9.04-14.9h6.93l-13.09 19.63-1.08 8.86h-5.62ZM131.92 45.91h10.72l-.4 3.22H135l-.47 4h6.25l-.42 3.24h-6.25l-.81 6.74h-3.5ZM152.1 63.25a9.53 9.53 0 0 1-2.92-.47 7.85 7.85 0 0 1-2.66-1.45 7.15 7.15 0 0 1-1.92-2.54 8.75 8.75 0 0 1-.73-3.7 9.49 9.49 0 0 1 .58-3.18 9.64 9.64 0 0 1 1.72-3 8.87 8.87 0 0 1 2.91-2.25 9.36 9.36 0 0 1 4.12-.86 9.83 9.83 0 0 1 2.92.46 8.15 8.15 0 0 1 2.66 1.46 7.15 7.15 0 0 1 1.92 2.54 8.75 8.75 0 0 1 .72 3.7 10 10 0 0 1-2.29 6.21 8.81 8.81 0 0 1-2.92 2.25 9.28 9.28 0 0 1-4.11.83Zm.05-3.26a6.11 6.11 0 0 0 2.69-.55 5 5 0 0 0 1.78-1.43 6.22 6.22 0 0 0 1-1.91 6.82 6.82 0 0 0 .32-2 5.17 5.17 0 0 0-.36-1.93 5.06 5.06 0 0 0-1-1.62 4.66 4.66 0 0 0-3.49-1.53 5.87 5.87 0 0 0-2.68.55 4.81 4.81 0 0 0-1.76 1.43 5.77 5.77 0 0 0-1 1.92 7.36 7.36 0 0 0-.29 2 5.48 5.48 0 0 0 .35 1.92 5.18 5.18 0 0 0 1 1.63 4.49 4.49 0 0 0 3.45 1.53ZM167.92 56.75a2.82 2.82 0 0 0 .27 1.56 2.88 2.88 0 0 0 1.09 1.21 3 3 0 0 0 1.67.47 3.66 3.66 0 0 0 1.8-.47 4.45 4.45 0 0 0 1.41-1.21 3.14 3.14 0 0 0 .66-1.56l1.33-10.84h3.5l-1.33 10.89a6.81 6.81 0 0 1-1.32 3.36 8 8 0 0 1-6.41 3.11 6.81 6.81 0 0 1-3.39-.82 5.46 5.46 0 0 1-2.23-2.29 5.59 5.59 0 0 1-.51-3.34l1.29-10.91h3.5ZM197.34 63.78h-.1l-11.56-11.74.94.56-1.22 10.49H182l2.19-17.83h.14l11.28 11.7-.7-.33 1.21-10.72h3.41ZM201.88 63.09 204 45.91h6a8.51 8.51 0 0 1 3.83.77 6 6 0 0 1 2.37 2.05 8 8 0 0 1 1.13 2.87 10.67 10.67 0 0 1 .1 3.19 9.65 9.65 0 0 1-1 3.44 9.07 9.07 0 0 1-2 2.61 8.79 8.79 0 0 1-2.73 1.65 8.46 8.46 0 0 1-3.11.58Zm3.78-3.27h2.75a6.42 6.42 0 0 0 2.1-.33 5.19 5.19 0 0 0 1.71-1 5.24 5.24 0 0 0 1.2-1.65 7.07 7.07 0 0 0 .6-2.27 5.62 5.62 0 0 0-.21-2.74 3.83 3.83 0 0 0-1.16-1.64 4.54 4.54 0 0 0-1.55-.81 5.72 5.72 0 0 0-1.39-.22H207ZM220.64 63.09h-3.33l9.93-17.83h.18L233 63.09h-3.91l-3.41-12.54 2.63-1.64Zm2.73-6.2h5.15l.84 2.84H222ZM235.23 45.91h11.56l-.42 3.34h-4.1l-1.7 13.82h-3.5l1.7-13.82h-4ZM250.05 45.91h3.5l-2.1 17.16H248ZM264.2 63.25a9.65 9.65 0 0 1-2.93-.47 7.9 7.9 0 0 1-2.65-1.45 7.15 7.15 0 0 1-1.92-2.54 8.6 8.6 0 0 1-.73-3.7 10 10 0 0 1 2.3-6.21 8.87 8.87 0 0 1 2.91-2.25 9.36 9.36 0 0 1 4.12-.86 9.83 9.83 0 0 1 2.92.46 8.15 8.15 0 0 1 2.66 1.46 7.15 7.15 0 0 1 1.92 2.54 8.75 8.75 0 0 1 .72 3.7 10 10 0 0 1-2.29 6.21 8.81 8.81 0 0 1-2.92 2.25 9.28 9.28 0 0 1-4.11.86Zm.05-3.26a6.11 6.11 0 0 0 2.69-.55 5 5 0 0 0 1.78-1.43 6.22 6.22 0 0 0 1-1.91 6.82 6.82 0 0 0 .32-2 5.17 5.17 0 0 0-.36-1.93 5.06 5.06 0 0 0-1-1.62 4.77 4.77 0 0 0-1.54-1.12 4.65 4.65 0 0 0-2-.41 5.9 5.9 0 0 0-2.68.55 4.77 4.77 0 0 0-1.75 1.43 5.77 5.77 0 0 0-1 1.92 7.36 7.36 0 0 0-.29 2 5.26 5.26 0 0 0 .35 1.92 5.18 5.18 0 0 0 1 1.63 4.49 4.49 0 0 0 3.45 1.53ZM291.09 63.78H291l-11.56-11.74.93.56-1.21 10.49h-3.43l2.19-17.83h.14l11.28 11.7-.69-.33 1.23-10.72h3.4Z"
                class="cls-1" />
        </g>
    </svg>
