<svg xmlns="http://www.w3.org/2000/svg" xmlns:xlink="http://www.w3.org/1999/xlink" viewBox="0 0 828.53 284.01">
        <defs>
            <style>
                /*
                * Prefixed by https://autoprefixer.github.io
                * PostCSS: v8.4.14,
                * Autoprefixer: v10.4.7
                * Browsers: last 4 version
                */

                .cls-1 {
                    fill: #2d3a49;
                }

                .cls-2 {
                    fill: #ed1c24;
                }

                .logo-div {
                    position: relative;
                    width: 180px;
                    overflow: hidden;
                }

                .logo-div #de,
                .logo-div #db {
                    position: absolute;
                    top: 0;
                    left: 50px;
                }

                .shelter {
                    -webkit-transform-origin: 0 100%;
                    -ms-transform-origin: 0 100%;
                    transform-origin: 0 100%;
                }

                @-webkit-keyframes flipone {
                    0% {
                        -webkit-transform-origin: 100% 0;
                        transform-origin: 100% 0;
                        -webkit-transform: rotateX(90deg);
                        opacity: 0;
                        top: 0;
                    }

                    5% {
                        -webkit-transform-origin: 100% 0;
                        transform-origin: 100% 0;
                        -webkit-transform: rotateX(0deg);
                        opacity: 1;
                        top: 0;
                    }

                    48% {
                        -webkit-transform-origin: 100% 0;
                        transform-origin: 100% 0;
                        -webkit-transform: rotateX(0deg);
                        opacity: 1;
                        top: 0;
                    }

                    55% {
                        -webkit-transform-origin: 0 100%;
                        transform-origin: 0 100%;
                        -webkit-transform: rotateX(90deg);
                        opacity: 0;
                        top: 100%;
                    }

                    100% {
                        -webkit-transform-origin: 100% 0;
                        transform-origin: 100% 0;
                        -webkit-transform: rotateX(90deg);
                        opacity: 0;
                        top: 0;
                    }
                }

                @keyframes flipone {
                    0% {
                        -webkit-transform-origin: 100% 0;
                        transform-origin: 100% 0;
                        -webkit-transform: rotateX(90deg);
                        opacity: 0;
                        top: 0;
                    }

                    5% {
                        -webkit-transform-origin: 100% 0;
                        transform-origin: 100% 0;
                        -webkit-transform: rotateX(0deg);
                        opacity: 1;
                        top: 0;
                    }

                    48% {
                        -webkit-transform-origin: 100% 0;
                        transform-origin: 100% 0;
                        -webkit-transform: rotateX(0deg);
                        opacity: 1;
                        top: 0;
                    }

                    55% {
                        -webkit-transform-origin: 0 100%;
                        transform-origin: 0 100%;
                        -webkit-transform: rotateX(90deg);
                        opacity: 0;
                        top: 100%;
                    }

                    100% {
                        -webkit-transform-origin: 100% 0;
                        transform-origin: 100% 0;
                        -webkit-transform: rotateX(90deg);
                        opacity: 0;
                        top: 0;
                    }
                }

                .logo-div #de {
                    -webkit-animation: flipone 10s linear infinite;
                    animation: flipone 10s linear infinite;
                }

                .logo-div #db {
                    opacity: 0;
                    height: 100%;
                    -webkit-animation: flipone 10s 5s linear infinite;
                    animation: flipone 10s 5s linear infinite;
                }

                @-webkit-keyframes shelter {
                    0% {
                        -webkit-transform: rotate(0deg);
                        transform: rotate(0deg);
                    }

                    50% {
                        -webkit-transform: rotate(6deg);
                        transform: rotate(6deg);
                    }

                    100% {
                        -webkit-transform: rotate(0deg);
                        transform: rotate(0deg);
                    }
                }

                @keyframes shelter {
                    0% {
                        -webkit-transform: rotate(0deg);
                        transform: rotate(0deg);
                    }

                    50% {
                        -webkit-transform: rotate(6deg);
                        transform: rotate(6deg);
                    }

                    100% {
                        -webkit-transform: rotate(0deg);
                        transform: rotate(0deg);
                    }
                }

                @-webkit-keyframes hurrey {
                    0% {
                        -webkit-transform: translateY(0px);
                        transform: translateY(0px);
                    }

                    100% {
                        -webkit-transform: translateY(-10px);
                        transform: translateY(-10px);

                    }
                }

                @keyframes hurrey {
                    0% {
                        -webkit-transform: translateY(0px);
                        transform: translateY(0px);
                    }

                    100% {
                        -webkit-transform: translateY(-10px);
                        transform: translateY(-10px);
                    }
                }

                .parent {
                    -webkit-animation: hurrey 3s ease-in-out infinite;
                    animation: hurrey 3s ease-in-out infinite;
                }

                .child {
                    -webkit-animation: hurrey 3s 1.5s ease-in-out infinite;
                    animation: hurrey 3s 1.5s ease-in-out infinite;
                }


                .shelter {
                    -webkit-transform-origin: 0 100%;
                    -ms-transform-origin: 0 100%;
                    transform-origin: 0 100%;
                    -webkit-animation: shelter 3s linear infinite;
                    animation: shelter 3s linear infinite;
                }
            </style>
        </defs>
        <title>Untitled-1</title>
        <g id="Layer_3" data-name="Layer 3">
            <path class="cls-1 shelter"
                d="M72.16,248S-58.51,83.75,174.91,0c0,0-144.18,35.56-167.86,89.06C-26.79,165.52,72.16,248,72.16,248Z" />
            <g class="parent">
                <circle class="cls-2" cx="200.31" cy="78.48" r="25.13" />
                <path class="cls-1"
                    d="M250,61.51l-9.74,19.2c-22,40.39-45.18,53.63-79.11,2.79l-8.64-13,13.21,143.22,54-13.23C239.22,164.07,255.09,116.3,250,61.51Z" />
            </g>
            <g class="child">
                <circle class="cls-2" cx="114.35" cy="147.44" r="16.34" />
                <path class="cls-1"
                    d="M145.46,132l-4.11,11.74c-10.63,27.69-26.93,43-54.54,7.53l-9.13-13c3.36,36.44,19,66.07,36,88.21l39.58-9.69Z" />
            </g>
            <path class="cls-2"
                d="M220,210.09,176.66,220.7l-10,2.46-31.77,7.77-122.5,30C14,278.47,26.26,285.69,48,283.68l205.8-19a33.45,33.45,0,0,0,30.16-36.29l-3.06-33.22Z" />
        </g>
        <g class="logo-div">

            <g id="de" data-name="Layer 2" class="">
                <path class="cls-1"
                    d="M345.46,193V107.11h25.67q12.94,0,22,3.85a39.15,39.15,0,0,1,14.64,10.27,41,41,0,0,1,8.1,14.34,51.6,51.6,0,0,1,2.57,16,41.66,41.66,0,0,1-3.44,17.2,39,39,0,0,1-9.4,13.06,41,41,0,0,1-13.76,8.28A47.92,47.92,0,0,1,375.32,193Zm16.92-16.33h10a37.74,37.74,0,0,0,11.66-1.69,25.55,25.55,0,0,0,9-5,21.38,21.38,0,0,0,5.83-8.22,29.64,29.64,0,0,0,2-11.37q0-8.4-2.74-13.7a22.73,22.73,0,0,0-6.76-8.22,24.66,24.66,0,0,0-8.23-4,28.53,28.53,0,0,0-7.11-1.11H362.38Z" />
                <path class="cls-1" d="M435.38,107.11H452.3V193H435.38Z" />
                <path class="cls-1"
                    d="M551.31,196.44l-65.08-58.78,5,2.81L491.6,193H474.45V103.73h.71l63.67,58.55-3.73-1.64-.35-53.53h17v89.33Z" />
                <path class="cls-1"
                    d="M643.56,184.32a17.55,17.55,0,0,1-4.77,3.33,52.24,52.24,0,0,1-7.53,3.08,73,73,0,0,1-8.69,2.28,43.6,43.6,0,0,1-8.4.87,54.11,54.11,0,0,1-18.88-3.09,41.83,41.83,0,0,1-14.35-8.63,37.11,37.11,0,0,1-9.1-13.12,42.71,42.71,0,0,1-3.15-16.56A53.86,53.86,0,0,1,572.25,132a40.81,40.81,0,0,1,9.68-14.46A39.33,39.33,0,0,1,596,109a50.13,50.13,0,0,1,16.73-2.8,59.88,59.88,0,0,1,15.17,1.8,50,50,0,0,1,11.66,4.5l-5.48,15.75a33.08,33.08,0,0,0-5.6-2.34,64.32,64.32,0,0,0-7.11-1.93,32.1,32.1,0,0,0-6.42-.76A39.77,39.77,0,0,0,602.63,125a23.33,23.33,0,0,0-9,5.24,22,22,0,0,0-5.53,8.69A35.52,35.52,0,0,0,586.19,151a27.13,27.13,0,0,0,2.1,10.9,23.13,23.13,0,0,0,5.89,8.22,25.4,25.4,0,0,0,9,5.13A35.68,35.68,0,0,0,614.64,177a39.1,39.1,0,0,0,6.65-.52,16.36,16.36,0,0,0,5.13-1.7V164.38H611.61V148.05h31.95Z" />
                <path class="cls-1"
                    d="M735,107.11V193H718.09V158.08H679.72V193H662.81V107.11h16.91v34.64h38.37V107.11Z" />
                <path class="cls-1"
                    d="M779.43,166.24l-31.61-59.13H768.7l22.16,44.55-5,.35,21.81-44.9h20.88l-32.19,59.13V193H779.43Z" />
                <path class="cls-1" d="M345.46,217.93h20.87v6.35H352v7.58h12.39v6.35H352v13.12h-6.58Z" />
                <path class="cls-1"
                    d="M389.15,234.68a16.44,16.44,0,0,1,1.32-6.54,17.42,17.42,0,0,1,3.65-5.47,17.22,17.22,0,0,1,5.43-3.74,16.69,16.69,0,0,1,13.2,0,18,18,0,0,1,5.47,3.74,17.63,17.63,0,0,1,3.72,5.47,16.45,16.45,0,0,1,1.34,6.54,16.63,16.63,0,0,1-1.34,6.62,17.18,17.18,0,0,1-3.72,5.42,17.71,17.71,0,0,1-5.47,3.65,17.16,17.16,0,0,1-13.2,0,17,17,0,0,1-9.08-9.07A16.61,16.61,0,0,1,389.15,234.68Zm6.81,0a10.8,10.8,0,0,0,.79,4.15,10.61,10.61,0,0,0,2.23,3.4,10.13,10.13,0,0,0,7.41,3.11,9.6,9.6,0,0,0,7.17-3.11,11.36,11.36,0,0,0,2.11-11.78A11.25,11.25,0,0,0,413.5,227a9.85,9.85,0,0,0-3.24-2.29A10.07,10.07,0,0,0,398.91,227a10.56,10.56,0,0,0-2.18,3.42A11.36,11.36,0,0,0,396,234.68Z" />
                <path class="cls-1"
                    d="M454.26,239a5.38,5.38,0,0,0,1,3,7.32,7.32,0,0,0,2.51,2.37,6.79,6.79,0,0,0,3.43.9,7.24,7.24,0,0,0,3.63-.9,7.09,7.09,0,0,0,2.52-2.37,5.5,5.5,0,0,0,.93-3V217.93h6.48v21.2a11.8,11.8,0,0,1-1.81,6.5,12.54,12.54,0,0,1-4.9,4.45,14.51,14.51,0,0,1-6.85,1.61,14.26,14.26,0,0,1-6.78-1.61,12.56,12.56,0,0,1-4.88-4.45,11.8,11.8,0,0,1-1.81-6.5v-21.2h6.57Z" />
                <path class="cls-1"
                    d="M531.07,252.69l-25.31-22.87,1.95,1.09.14,20.42h-6.67V216.62h.27l24.77,22.77-1.45-.63-.13-20.83h6.62v34.76Z" />
                <path class="cls-1"
                    d="M558.4,251.33v-33.4h10a21.91,21.91,0,0,1,8.57,1.5,15.2,15.2,0,0,1,5.7,4A16,16,0,0,1,585.8,229a20,20,0,0,1,1,6.22,16.15,16.15,0,0,1-1.34,6.69,15.36,15.36,0,0,1-3.65,5.09,16.14,16.14,0,0,1-5.35,3.22,18.68,18.68,0,0,1-6.45,1.11ZM565,245h3.91a15.09,15.09,0,0,0,4.54-.65,10.12,10.12,0,0,0,3.51-1.93,8.34,8.34,0,0,0,2.27-3.2,11.5,11.5,0,0,0,.8-4.42,11.66,11.66,0,0,0-1.07-5.34,9,9,0,0,0-2.63-3.2,9.77,9.77,0,0,0-3.2-1.56,11,11,0,0,0-2.77-.43H565Z" />
                <path class="cls-1"
                    d="M608.13,251.33l15.06-34.71h.36l15.07,34.71H631l-9.61-24.41,4.75-3.27-11.51,27.68Zm10.3-12.08h10l2.31,5.55H616.38Z" />
                <path class="cls-1" d="M659.71,217.93h22.51v6.35H674.1v27.05h-6.58V224.28h-7.81Z" />
                <path class="cls-1" d="M707.08,217.93h6.58v33.4h-6.58Z" />
                <path class="cls-1"
                    d="M738.75,234.68a16.61,16.61,0,0,1,1.31-6.54,17.62,17.62,0,0,1,3.66-5.47,17.18,17.18,0,0,1,5.42-3.74,16.22,16.22,0,0,1,6.63-1.36,16,16,0,0,1,6.57,1.36,18,18,0,0,1,5.48,3.74,17.6,17.6,0,0,1,3.71,5.47,16.28,16.28,0,0,1,1.34,6.54,16.46,16.46,0,0,1-1.34,6.62,17.15,17.15,0,0,1-3.71,5.42,17.76,17.76,0,0,1-5.48,3.65,16.48,16.48,0,0,1-6.57,1.32,16.7,16.7,0,0,1-6.63-1.32,16.93,16.93,0,0,1-5.42-3.65,17.18,17.18,0,0,1-3.66-5.42A16.78,16.78,0,0,1,738.75,234.68Zm6.8,0a10.75,10.75,0,0,0,3,7.55,10.28,10.28,0,0,0,3.32,2.29,10.08,10.08,0,0,0,4.1.82,9.64,9.64,0,0,0,7.17-3.11,10.86,10.86,0,0,0,2.13-3.4,11.21,11.21,0,0,0-2.2-11.8,9.75,9.75,0,0,0-3.24-2.29A10.09,10.09,0,0,0,748.5,227a10.71,10.71,0,0,0-2.17,3.42A11.36,11.36,0,0,0,745.55,234.68Z" />
                <path class="cls-1"
                    d="M827.86,252.69l-25.32-22.87,2,1.09.13,20.42H798V216.62h.26L823,239.39l-1.45-.63-.14-20.83h6.63v34.76Z" />
            </g>

            <g id="db" data-name="Layer 1">
                <path class="cls-1"
                    d="M355.81,91.77h36.9l-5.32,16.28h-6.32V166l-.28.28a22.28,22.28,0,0,0-2,1.27c-1.58,1.12-3.39,2.41-5.4,3.86s-3.81,2.86-5.4,4.2a11.15,11.15,0,0,0-2.8,3l-3.09-2v-68.6H350.48Zm-1.68-15.85.14-.15v-.14c.37-.38,1.26-1.45,2.67-3.23v-.14a66.82,66.82,0,0,1,8-8.06,54,54,0,0,1,12.77-8.14,39.62,39.62,0,0,1,17.12-3.59,46.76,46.76,0,0,1,15.71,3,67.89,67.89,0,0,1,17.83,10.17L419,76.75h-.14l-.14-.14c-.39-.28-1.32-.89-2.81-1.82v-.14a48.21,48.21,0,0,0-8.06-3.93,28.64,28.64,0,0,0-10.6-2,22.27,22.27,0,0,0-8.7,1.82A21.37,21.37,0,0,0,380.37,77a41.34,41.34,0,0,0-6.59,12.77Z" />
                <path class="cls-1"
                    d="M387.38,91.77h79.56l-5.33,16.28H425.69v17a18.89,18.89,0,0,1,10.25-3.37A24.59,24.59,0,0,1,448.56,125q10.38,6,10.38,19.23-1.53,21.47-21.75,31a40.56,40.56,0,0,1-15.71,3,45.16,45.16,0,0,1-12.92-1.69,99.27,99.27,0,0,1-23.14-10l9.68-17.27a88.75,88.75,0,0,0,18.24,8,33.1,33.1,0,0,0,8.14,1.12,21.53,21.53,0,0,0,8.35-1.61,14.89,14.89,0,0,0,6.45-5.27,13.92,13.92,0,0,0,2.74-7.72l-.14-1.54a4.41,4.41,0,0,0-2.25-.84,51.92,51.92,0,0,0-7,6.18l-1.13,1a28.28,28.28,0,0,1-3.37,2.94l-.14.14q-.56-.13-18.23-7V108.05h-24.7Z" />
                <path class="cls-1"
                    d="M487.94,91.77h36.9l-5.33,16.28H513.2V166l-.29.28a19.83,19.83,0,0,0-2,1.27q-2.38,1.68-5.4,3.86c-2,1.45-3.82,2.86-5.41,4.2a11.33,11.33,0,0,0-2.8,3l-3.09-2v-68.6H482.6Zm-1.68-15.85.14-.15v-.14c.37-.38,1.25-1.45,2.66-3.23v-.14a67,67,0,0,1,8-8.06,54,54,0,0,1,12.77-8.14,39.51,39.51,0,0,1,17.11-3.59,46.81,46.81,0,0,1,15.72,3,67.69,67.69,0,0,1,17.82,10.17l-9.4,11.08h-.14l-.14-.14c-.38-.28-1.31-.89-2.81-1.82v-.14a48.6,48.6,0,0,0-8.06-3.93,28.6,28.6,0,0,0-10.6-2,22.27,22.27,0,0,0-8.7,1.82A21.44,21.44,0,0,0,512.49,77,41.55,41.55,0,0,0,505.9,89.8Z" />
                <path class="cls-1"
                    d="M586.3,131.62h-2a21.85,21.85,0,0,1-6-.85Q569.47,127.7,566,118a31.93,31.93,0,0,1-1.25-10H514.18l5.33-16.28h99.35l-5.34,16.28h-2.8a30.19,30.19,0,0,1-6.46,14A27.21,27.21,0,0,1,586.3,131.62Zm0,62.72,13.9-14.59q-9.13-9.13-9.13-19.65,0-8.68,6.74-15.43l-15.72-11.22-12.62,6.16q0-13.89-6.46-21.89-6.74-7.43-18.66-7.43-8.7,0-14.31,5.47-7.86,8.7-7.87,24.7h19.65l.28-.56c1.31-4.22,2.85-6.32,4.63-6.32s3.37,2.62,4.49,7.86V142a8.6,8.6,0,0,1-2.74,6,29,29,0,0,1-6.79,5.19,70.5,70.5,0,0,1-7.23,3.66c-2.11.89-3.28,1.35-3.52,1.39a4.26,4.26,0,0,0-.9.36l12.63,22.73,28.48-18.52a39.52,39.52,0,0,0,3.72,16.69,44.34,44.34,0,0,0,6.94,10.6c2.34,2.48,3.65,3.71,3.93,3.71Zm-2.1-81.24q4.62,0,7.15-5h-7.71a9.56,9.56,0,0,0-.28,2.37A3.39,3.39,0,0,0,584.2,113.1Z" />
                <path class="cls-1"
                    d="M420.48,227.65l-3.2,9.78H377.94l6.49,11-9.1,7.91a28.08,28.08,0,0,1,11.79,4.89V241.8l11.8-.16a34.29,34.29,0,0,1,4,.41,18.41,18.41,0,0,1,6.23,2.24,14.68,14.68,0,0,1,5.56,5.77,8.68,8.68,0,0,1,1,4.38,14.38,14.38,0,0,1-1.43,5.86,27.21,27.21,0,0,1-5.48,7.28l-9.1-6.57.51-.42.51-.51a15.2,15.2,0,0,0,1-1.14,8.55,8.55,0,0,0,1.05-1.64,4.08,4.08,0,0,0,.46-1.85l-.08-.59q-.42-1.85-3.62-2.87l-.17,20-.17.17c-2.24,1.51-4.28,3-6.1,4.38a14.78,14.78,0,0,0-3.16,2.86l-.18.59-2.61-1.6v-4.29a29.36,29.36,0,0,0-7.58-5.52,27.53,27.53,0,0,0-7.37-2.49,37.35,37.35,0,0,0-6-.59,16.94,16.94,0,0,0-3.79.25h-.09l-.75.18.16-.85c0-.56-.63-1.72-1.89-3.49a67.3,67.3,0,0,0-4.26-5.35l-.25-.34.17-.34a13.92,13.92,0,0,1,3.41-2.86c1.83-1.23,3.75-2.45,5.77-3.62s3.54-2.05,4.55-2.62L365.31,242c-1.52-1.69-2.89-3.2-4.13-4.54h-10.7l3.2-9.78Z" />
                <path class="cls-1"
                    d="M417.28,227.65h22.07l-3.2,9.78h-3.79v34.78l-.17.17a11,11,0,0,0-1.18.76c-.9.67-1.95,1.45-3.16,2.32s-2.29,1.71-3.24,2.52a8.84,8.84,0,0,0-1.77,1.81l-1.77-1.18V237.43h-7Z" />
                <path class="cls-1"
                    d="M473.55,244.08v3.53a11.54,11.54,0,0,1,6-2,15.27,15.27,0,0,1,7.83,2c4.1,2.48,6.15,6.32,6.15,11.55q-.93,13-13.06,18.61a26.21,26.21,0,0,1-9.35,1.86,27.62,27.62,0,0,1-7.83-1,55.62,55.62,0,0,1-13.81-6l5.73-10.44a50.28,50.28,0,0,0,11,4.89,18.6,18.6,0,0,0,4.8.67q6,0,9-4.21a8.29,8.29,0,0,0,1.59-4.64l-.08-.84a2.6,2.6,0,0,0-1.35-.51,27.4,27.4,0,0,0-4.72,4.05c-.95.9-1.71,1.57-2.27,2l-.08.08-11-4.29v-22H447.44l3.2-9.78h24.52c.67,0,1,1.41,1.1,4.22.61-.17,1.23-.37,1.85-.6a9.94,9.94,0,0,0,5.81-4.88,4.3,4.3,0,0,0,.42-1.77,3.49,3.49,0,0,0-1.35-2.69c-1.29-1.13-2.24-1.69-2.86-1.69l-1.18-.43,7.84-6.31c.21.06.89.34,2,.84a11.74,11.74,0,0,1,6.07,6.32,10.23,10.23,0,0,1,.76,4,18.13,18.13,0,0,1-2.61,8.67q-6.33,10.78-17.86,10.79Z" />
                <path class="cls-1"
                    d="M531.75,284a25.47,25.47,0,0,1-13.31-9.35,30.27,30.27,0,0,1-6.32-19,37.49,37.49,0,0,1,1.35-10.19,52.72,52.72,0,0,1,3-8h-9.18l3.2-9.78H535l-3.2,9.78h-2.7q-6,9.18-6,18.35a20.59,20.59,0,0,0,3.87,11.8,15,15,0,0,0,7.75,5.64Z" />
                <path class="cls-1"
                    d="M565.11,280.55a27.89,27.89,0,0,1-7.92-1A63.84,63.84,0,0,1,543,273.48l5.89-10.62a49.12,49.12,0,0,0,11.21,5,19.59,19.59,0,0,0,4.88.68q6.15,0,9.19-4.3a9.22,9.22,0,0,0,1.6-5.56c-.17-.23-.65-.39-1.44-.51q-1.08.76-3.79,3.2-1.94,1.88-3.28,3l-.08.09L556.1,260v-5.48a17.33,17.33,0,0,0-9.44-3.2l-1.43.08a2.6,2.6,0,0,0-.84,2,6.1,6.1,0,0,0,1.1,3.12l3.53,3-4.89,8.5a19.55,19.55,0,0,1-4.46-2.77,14.29,14.29,0,0,1-6.24-12,20,20,0,0,1,.76-5.38q2.46-7.26,9.27-9a14,14,0,0,1,3.12-.33,17.1,17.1,0,0,1,8.5,2.26l1,.59v-4H528.63l3.21-9.78h60.9l-3.2,9.78H567.63V248a11.55,11.55,0,0,1,6.33-2.11,15.3,15.3,0,0,1,7.74,2,12.16,12.16,0,0,1,6.24,11.2,20.77,20.77,0,0,1-3.71,11.92,21.89,21.89,0,0,1-9.51,7.7A29.17,29.17,0,0,1,565.11,280.55Z" />
                <path class="cls-1"
                    d="M651.76,279.88l-2.52-1.6V247.11l-7.92-5.56a11.59,11.59,0,0,0-4.72,3.7,9.21,9.21,0,0,0-1.6,5.4,18.45,18.45,0,0,0,.17,2.36,6,6,0,0,0,.76,1,3.66,3.66,0,0,0,2.78,1.18q2.43,0,5.81-2.78l4.13,10.36a15.89,15.89,0,0,1-2.11,1.51,17.38,17.38,0,0,1-9.6,3.29,10.18,10.18,0,0,1-5.9-2,24.14,24.14,0,0,1-4.63-4.72q-4.47,4.89-9,4.88a17.46,17.46,0,0,1-9.61-3.2c-.79-.5-1.51-1-2.19-1.51l4.21-10.36.51.34c2,1.63,3.68,2.44,5.14,2.44a3.46,3.46,0,0,0,1.09-.17,3.81,3.81,0,0,0,1.81-1,5.35,5.35,0,0,0,.72-.85l.09-.16a20.19,20.19,0,0,0,.16-2.36,9.57,9.57,0,0,0-1.6-5.48c-2.25-2.86-5.61-4.58-10.11-5.14a10.56,10.56,0,0,1-3.2-.83H600.8l3.2-9.78h8.51q1.61.09,6.4,2.44a24.74,24.74,0,0,1,8.93,8.17,20.8,20.8,0,0,1,12-7.24l2.52-.5a.47.47,0,0,1,.34.16v-.16l6.49,4.21v-7.08h19.2l-3.2,9.78h-3.79V272l-.25.09q-3.37,2.26-6.07,4.42a18.39,18.39,0,0,0-3.11,2.82Z" />
                <path class="cls-1"
                    d="M727.21,237.43h-3.79v34.62q-1.86,1.26-6.24,4.63a17.28,17.28,0,0,0-3.2,2.78l-.16.59-2.62-1.6V261.68a25.08,25.08,0,0,0-4.63-3.54,11.26,11.26,0,0,0-5.48-1.43,9,9,0,0,0-6.56,3.12,3.67,3.67,0,0,0-.43,1.85q0,4.14,6.4,6.32l.59.17L695.37,278a3.15,3.15,0,0,0-.47-.16c-.2-.06-1-.39-2.31-1a26.3,26.3,0,0,1-4.55-2.77,20.94,20.94,0,0,1-4.51-4.55,10.53,10.53,0,0,1-2-6.41q0-17.27,15.67-18.7l2.19-.08a21.33,21.33,0,0,1,11.79,3.79V237.43H676.75l3.2-9.78h50.46Z" />
            </g>
        </g>
    </svg>
